# xmcd
#
# Track frame offsets: 
#        150
#        15585
#        35542
#        56790
#        72925
#        91312
#        105522
#        121307
#        137765
#        153980
#
# Disc length: 2209 seconds
#
# Revision: 1
# Processed by: cddbd v1.4PL0 Copyright (c) Steve Scherf et al.
# Submitted via: ExactAudioCopy v0.90b4
#
DISCID=7f089f0a
DTITLE=John Michael Montgomery - Pictures
DYEAR=2002
DGENRE=Country
TTITLE0=Country Thang
TTITLE1=Love Changes Everything
TTITLE2='Til Nothing Comes Between Us
TTITLE3=Got You To Thank For That
TTITLE4=Pictures
TTITLE5=Love And Alcohol
TTITLE6=I Wanna Be There
TTITLE7=Believe In Me
TTITLE8=It Goes Like This (Featuring Sixwire)
TTITLE9=Four-Wheel Drive
EXTD=
EXTT0=
EXTT1=
EXTT2=
EXTT3=
EXTT4=
EXTT5=
EXTT6=
EXTT7=
EXTT8=
EXTT9=
PLAYORDER=
